<?xml version="1.0" encoding="UTF-8" standalone="no"?>
<svg
   xmlns:dc="http://purl.org/dc/elements/1.1/"
   xmlns:cc="http://creativecommons.org/ns#"
   xmlns:rdf="http://www.w3.org/1999/02/22-rdf-syntax-ns#"
   xmlns:svg="http://www.w3.org/2000/svg"
   xmlns="http://www.w3.org/2000/svg"
   width="8mm"
   height="8.3999996mm"
   viewBox="0 0 8 8.3999996"
   version="1.1"
   id="svg8">
  <defs
     id="defs2" />
  <metadata
     id="metadata5">
    <rdf:RDF>
      <cc:Work
         rdf:about="">
        <dc:format>image/svg+xml</dc:format>
        <dc:type
           rdf:resource="http://purl.org/dc/dcmitype/StillImage" />
        <dc:title></dc:title>
      </cc:Work>
    </rdf:RDF>
  </metadata>
  <g
     id="layer1">
    <g
       aria-label="23"
       id="text835"
       style="font-size:10.5833px;line-height:1.25;font-family:'Gloucester MT Extra Condensed';-inkscape-font-specification:'Gloucester MT Extra Condensed, ';stroke-width:0.264583">
      <path
         d="M 3.7841776,8.0142765 H 0.38904682 q -0.19120219,0 -0.19120219,-0.1860346 0,-0.6046123 0.26871659,-1.080034 L 1.5724333,4.8000126 Q 2.047855,3.9628571 2.3165716,3.2910656 2.5904558,2.6192742 2.5904558,1.9733208 q 0,-0.5219303 -0.206705,-0.8474908 -0.2067051,-0.3307281 -0.5477685,-0.3307281 -0.263549,0 -0.4495835,0.14986118 -0.180867,0.14986122 -0.180867,0.24804612 0,0.041341 0.1033526,0.1188554 0.2945547,0.2118727 0.2945547,0.5219303 0,0.2377108 -0.165364,0.4185777 Q 1.2778786,2.428072 1.009162,2.428072 0.69910442,2.428072 0.52340511,2.2265345 0.35287343,2.0198294 0.35287343,1.694269 q 0,-0.5891095 0.44958353,-1.00768726 0.44958354,-0.4237454 1.17821894,-0.4237454 0.8061497,0 1.2815714,0.48575692 0.4805893,0.48058924 0.4805893,1.32808004 0,0.7286354 -0.3565663,1.4107621 Q 3.0297041,4.1695622 2.047855,5.4356307 1.2106995,6.5208324 1.0194973,7.0737684 h 1.7466578 q 0.2170404,0 0.3152253,-0.082682 0.1033525,-0.082682 0.1550288,-0.30489 0.051676,-0.206705 0.1912022,-0.206705 h 0.2273755 q 0.1291907,0 0.1291907,0.1188554 z"
         style="fill:none;stroke:#000000;stroke-width:0.264583;stroke-opacity:1"
         id="path837" />
      <path
         d="m 6.3989969,3.8284988 q 1.4210973,0.5994447 1.4210973,2.0928889 0,0.9921843 -0.6097799,1.5967966 -0.60978,0.6046124 -1.4624384,0.6046124 -0.6459534,0 -1.0696988,-0.3410634 -0.4237453,-0.346231 -0.4237453,-0.8681613 0,-0.2842195 0.1705316,-0.470254 0.1705317,-0.1912022 0.4495836,-0.1912022 0.2428784,0 0.3979072,0.165364 0.1601965,0.1601965 0.1601965,0.4134102 0,0.2738842 -0.1756994,0.4547511 -0.051676,0.051676 -0.051676,0.08785 0,0.077514 0.1446935,0.1601964 0.1446936,0.077514 0.3565663,0.077514 0.9611786,0 0.9611786,-1.7466578 0,-0.6252829 -0.1343583,-1.0076873 Q 6.3989969,4.4692845 6.2181299,4.3297586 6.037263,4.1850651 5.7065349,4.1230535 5.5101651,4.0920478 5.5101651,3.9938629 V 3.6683024 q 0,-0.1291907 0.1756993,-0.1395259 0.8784965,-0.051676 0.8784965,-1.5192823 0,-1.22989518 -0.733803,-1.22989518 -0.1912022,0 -0.3358957,0.0723468 -0.1395259,0.0671791 -0.1395259,0.16019641 0,0.062012 0.072347,0.1653641 0.1085202,0.1498612 0.1085202,0.3203928 0,0.2118727 -0.1550288,0.3720692 -0.1550288,0.1550288 -0.3720691,0.1550288 -0.2480461,0 -0.3979073,-0.1756993 -0.1498612,-0.180867 -0.1498612,-0.4392483 0,-0.4599188 0.4392483,-0.80098217 0.4444159,-0.34623099 1.038693,-0.34623099 0.7441382,0 1.2247275,0.49609217 0.4857569,0.49092459 0.4857569,1.21439229 0,1.1575484 -1.2505656,1.855178 z"
         style="fill:none;stroke:#000000;stroke-width:0.264583;stroke-opacity:1"
         id="path839" />
    </g>
  </g>
</svg>
