<?xml version="1.0" encoding="UTF-8" standalone="no"?>
<svg
   xmlns:dc="http://purl.org/dc/elements/1.1/"
   xmlns:cc="http://creativecommons.org/ns#"
   xmlns:rdf="http://www.w3.org/1999/02/22-rdf-syntax-ns#"
   xmlns:svg="http://www.w3.org/2000/svg"
   xmlns="http://www.w3.org/2000/svg"
   width="45mm"
   height="9mm"
   viewBox="0 0 45 9"
   version="1.1"
   id="svg8">
  <defs
     id="defs2" />
  <metadata
     id="metadata5">
    <rdf:RDF>
      <cc:Work
         rdf:about="">
        <dc:format>image/svg+xml</dc:format>
        <dc:type
           rdf:resource="http://purl.org/dc/dcmitype/StillImage" />
        <dc:title></dc:title>
      </cc:Work>
    </rdf:RDF>
  </metadata>
  <g
     id="layer1">
    <g
       aria-label="Made in Alsace"
       id="text835"
       style="font-size:10.5833px;line-height:1.25;font-family:'Gloucester MT Extra Condensed';-inkscape-font-specification:'Gloucester MT Extra Condensed, ';stroke-width:0.264583">
      <path
         d="M 0.7305993,7.4106047 V 1.2921346 q 0,-0.263549 -0.19636982,-0.39790729 Q 0.39987119,0.80637766 0.39987119,0.68235461 V 0.45497904 q 0,-0.11885542 0.13435829,-0.11885542 H 2.3997427 L 2.9836846,4.1033235 3.5676264,0.33612362 h 1.8861838 q 0.1136878,0 0.1136878,0.10852016 v 0.23771083 q 0,0.11885542 -0.1343583,0.2118727 Q 5.2367698,1.0337532 5.2367698,1.2921346 v 6.1184701 q 0,0.2687166 0.2015375,0.4030749 0.1291907,0.08785 0.1291907,0.206705 v 0.2325432 q 0,0.1188555 -0.1343583,0.1188555 H 3.877684 q -0.1085202,0 -0.1085202,-0.1085202 V 8.0203846 q 0,-0.1136878 0.1291907,-0.206705 Q 4.099892,7.6741536 4.099892,7.4106047 V 1.147441 L 2.9836846,8.3717833 H 2.5702744 L 1.4695699,1.147441 v 6.2631637 q 0,0.2687166 0.1963698,0.4030749 0.1343583,0.08785 0.1343583,0.206705 v 0.2325432 q 0,0.1188555 -0.1343583,0.1188555 H 0.51355897 q -0.11368778,0 -0.11368778,-0.1085202 V 8.0203846 q 0,-0.1136878 0.13435829,-0.206705 Q 0.7305993,7.6741536 0.7305993,7.4106047 Z"
         style="fill:none;stroke:#000000;stroke-width:0.264583;stroke-opacity:1"
         id="path837" />
      <path
         d="M 7.6810572,5.2660396 V 4.5425718 q 0,-0.6407857 -0.4960922,-0.6407857 -0.1756993,0 -0.1756993,0.1085202 0,0.041341 0.031006,0.124023 0.062011,0.1498612 0.062011,0.2583813 0,0.1963699 -0.1291907,0.3358958 -0.1291906,0.1343583 -0.3565662,0.1343583 -0.2480461,0 -0.3979073,-0.1498612 -0.1498612,-0.1550288 -0.1498612,-0.4030749 0,-0.4082425 0.3617339,-0.6614562 Q 6.797393,3.390191 7.2779823,3.390191 q 0.6769591,0 1.0490282,0.3669015 0.3772368,0.3617339 0.3772368,1.0283578 v 2.5734781 q 0,0.2118727 0.041341,0.3255605 0.046509,0.1085202 0.1963698,0.1395259 0.1240231,0.025838 0.1240231,0.1343583 v 0.222208 q 0,0.2738842 -0.4237454,0.2738842 -0.568439,0 -0.7854793,-0.5477685 -0.4960922,0.5736066 -0.956011,0.5736066 -0.4392482,0 -0.7234677,-0.3617339 Q 5.8930583,7.751668 5.8930583,7.1832291 q 0,-1.4572708 1.7879989,-1.9171895 z m 0,0.5270979 Q 6.9524218,6.0618541 6.9524218,6.976524 q 0,0.7183001 0.3772368,0.7183001 0.165364,0 0.2583813,-0.1601964 0.093017,-0.165364 0.093017,-0.3617339 z"
         style="fill:none;stroke:#000000;stroke-width:0.264583;stroke-opacity:1"
         id="path839" />
      <path
         d="M 11.303563,3.7002487 V 1.188782 q 0,-0.28421943 -0.21704,-0.3927396 -0.09818,-0.0465086 -0.09818,-0.13435829 V 0.47048192 q 0,-0.0930173 0.118855,-0.0930173 l 1.21956,-0.041341 V 7.5811364 q 0,0.2325432 0.129191,0.3358957 0.06201,0.051676 0.06201,0.1705317 v 0.2222079 q 0,0.093017 -0.09302,0.093017 H 11.303563 V 7.9118645 q -0.418578,0.5270979 -0.862993,0.5270979 -1.1213754,0 -1.1213754,-2.2324148 0,-2.8163566 1.2143924,-2.8163566 0.356566,0 0.769976,0.3100577 z m 0,0.511595 q -0.21704,-0.1653641 -0.392739,-0.1653641 -0.341064,0 -0.418578,0.5012598 -0.07235,0.5012598 -0.07235,1.1213751 V 6.588952 q 0,1.1937218 0.434081,1.1937218 0.242878,0 0.449583,-0.3203929 z"
         style="fill:none;stroke:#000000;stroke-width:0.264583;stroke-opacity:1"
         id="path841" />
      <path
         d="m 15.794231,7.1108823 q -0.118855,1.3694211 -1.235062,1.3694211 -0.738971,0 -1.173052,-0.6252828 -0.43408,-0.6252829 -0.43408,-1.8706809 0,-1.2092247 0.408242,-1.9016867 0.41341,-0.692462 1.105872,-0.692462 0.614948,0 0.992185,0.5374332 0.377236,0.5374332 0.377236,1.4210974 v 0.4340806 q 0,0.1240231 -0.12919,0.1240231 h -1.6123 v 0.4237454 q 0,0.6976296 0.134358,1.0696987 0.134359,0.3720692 0.470254,0.3720692 0.39274,0 0.542601,-0.7544736 z M 14.843388,5.3383863 V 4.6252538 q 0,-0.7441382 -0.382404,-0.7441382 -0.366902,0 -0.366902,0.9508433 v 0.5064274 z"
         style="fill:none;stroke:#000000;stroke-width:0.264583;stroke-opacity:1"
         id="path843" />
      <path
         d="m 18.796622,0.76503664 q 0.268717,0 0.449584,0.18086694 0.180867,0.18086692 0.180867,0.43924832 0,0.2532137 -0.180867,0.4340806 -0.180867,0.1808669 -0.434081,0.1808669 -0.258381,0 -0.439248,-0.1808669 -0.180867,-0.1808669 -0.180867,-0.4340806 0,-0.2687166 0.186034,-0.44441595 0.191203,-0.17569931 0.418578,-0.17569931 z m 0.537433,2.73367456 v 4.0514194 q 0,0.2687166 0.222208,0.3824044 0.09302,0.051676 0.09302,0.1498612 v 0.1912021 q 0,0.098185 -0.113688,0.098185 h -1.426265 q -0.113688,0 -0.113688,-0.098185 V 8.0823962 q 0,-0.1033526 0.09818,-0.1498612 0.21704,-0.1085202 0.21704,-0.3824044 v -3.198761 q 0,-0.2790518 -0.222208,-0.3927396 -0.09302,-0.051676 -0.09302,-0.1343583 V 3.6330695 q 0,-0.093017 0.113688,-0.098185 z"
         style="fill:none;stroke:#000000;stroke-width:0.264583;stroke-opacity:1"
         id="path845" />
      <path
         d="M 20.150541,7.5656335 V 4.3513696 q 0,-0.2842194 -0.222208,-0.3927396 -0.09302,-0.046509 -0.09302,-0.1343583 V 3.6330695 q 0,-0.093017 0.113688,-0.098185 l 1.224727,-0.036173 v 0.4237454 q 0.439248,-0.470254 0.961179,-0.470254 0.387572,0 0.604612,0.2997223 0.222208,0.2997224 0.222208,0.7803117 V 7.627645 q 0,0.1601964 0.139526,0.3307281 0.06718,0.082682 0.06718,0.1136878 v 0.2170403 q 0,0.082682 -0.07751,0.082682 H 21.83002 q -0.08785,0 -0.08785,-0.082682 V 8.0203846 q 0,-0.041341 0.05684,-0.082682 Q 21.93854,7.8291824 21.93854,7.6793213 V 4.5322366 q 0,-0.3772368 -0.268717,-0.3772368 -0.258381,0 -0.496092,0.3100576 V 7.627645 q 0,0.1756993 0.118856,0.30489 0.05684,0.062012 0.05684,0.08785 v 0.2842195 q 0,0.067179 -0.07235,0.067179 h -1.281572 q -0.08268,0 -0.08268,-0.077514 V 8.0203846 q 0,-0.036173 0.06718,-0.08785 0.170532,-0.1343583 0.170532,-0.3669015 z"
         style="fill:none;stroke:#000000;stroke-width:0.264583;stroke-opacity:1"
         id="path847" />
      <path
         d="m 26.868455,1.3541461 -0.05168,-0.3513986 q -0.02584,-0.17053171 -0.02584,-0.19120222 0,-0.0516763 0.07752,-0.0878497 l 0.873329,-0.40824252 q 0.02067,-0.0103352 0.04651,-0.0103352 0.07235,0 0.09302,0.0930173 L 29.286904,7.405437 q 0.03617,0.1912022 0.08785,0.2738843 0.05684,0.082682 0.211873,0.1756993 0.118855,0.072347 0.118855,0.165364 v 0.2273756 q 0,0.1240231 -0.09819,0.1240231 H 27.88131 q -0.139526,0 -0.139526,-0.1240231 V 8.0203846 q 0,-0.1188554 0.165364,-0.2015374 0.201537,-0.1085202 0.201537,-0.2945547 0,-0.051676 -0.01034,-0.1188555 L 27.88131,6.3254031 h -1.348751 l -0.21704,1.0386929 q -0.0155,0.067179 -0.0155,0.098185 0,0.1550288 0.232543,0.3410634 0.149861,0.1240231 0.149861,0.2170403 v 0.2273756 q 0,0.1240231 -0.149861,0.1240231 h -1.080034 q -0.180867,0 -0.180867,-0.1240231 V 7.9790436 q 0,-0.1085201 0.113688,-0.1756993 0.211873,-0.1291907 0.279052,-0.4392483 z m 0.351398,1.6588082 -0.537433,2.6509925 h 1.059364 z"
         style="fill:none;stroke:#000000;stroke-width:0.264583;stroke-opacity:1"
         id="path849" />
      <path
         d="M 31.224766,0.33612362 V 7.5501306 q 0,0.2687166 0.222208,0.3824044 0.09302,0.051676 0.09302,0.1498612 v 0.1912021 q 0,0.098185 -0.113688,0.098185 h -1.426265 q -0.113688,0 -0.113688,-0.098185 V 8.0823962 q 0,-0.1033526 0.09819,-0.1498612 0.21704,-0.1085202 0.21704,-0.3824044 V 1.188782 q 0,-0.27905181 -0.222207,-0.3927396 -0.09302,-0.0465086 -0.09302,-0.13435829 V 0.47048192 q 0,-0.0930173 0.113688,-0.0930173 z"
         style="fill:none;stroke:#000000;stroke-width:0.264583;stroke-opacity:1"
         id="path851" />
      <path
         d="m 33.255642,3.390191 q 0.506428,0 0.831988,0.2532138 0.330728,0.2532137 0.330728,0.6407857 0,0.2222079 -0.155028,0.3824044 -0.149862,0.1601964 -0.39274,0.1601964 -0.19637,0 -0.351399,-0.1136878 -0.149861,-0.1188554 -0.149861,-0.3358957 0,-0.08785 0.04651,-0.1963699 0.03101,-0.072347 0.03101,-0.1085201 0,-0.180867 -0.273885,-0.180867 -0.19637,0 -0.351398,0.1446936 -0.149861,0.1395259 -0.149861,0.3927396 0,0.2170404 0.139525,0.4134102 0.139526,0.1912022 0.733803,0.6201152 0.573607,0.4134101 0.800983,0.7648087 0.227375,0.346231 0.227375,0.7854793 0,0.6976296 -0.449583,1.0852016 -0.449584,0.3824044 -1.069699,0.3824044 -0.58911,0 -0.956011,-0.2790518 -0.361734,-0.2842195 -0.361734,-0.7183001 0,-0.2377109 0.144694,-0.4082426 0.144693,-0.1756993 0.418577,-0.1756993 0.496093,0 0.496093,0.4702541 0,0.077514 -0.03101,0.2015374 -0.03101,0.1136878 -0.03101,0.1601964 0,0.2532137 0.361734,0.2532137 0.273884,0 0.454751,-0.1705316 0.180867,-0.1756993 0.180867,-0.3979073 0,-0.2428785 -0.160196,-0.4444159 Q 33.415839,6.7646513 32.95592,6.4132527 32.335805,5.937831 32.082591,5.5967677 31.829377,5.2505367 31.829377,4.7699474 q 0,-0.6149476 0.434081,-0.997352 0.434081,-0.3824044 0.992184,-0.3824044 z"
         style="fill:none;stroke:#000000;stroke-width:0.264583;stroke-opacity:1"
         id="path853" />
      <path
         d="M 36.635272,5.2660396 V 4.5425718 q 0,-0.6407857 -0.496092,-0.6407857 -0.1757,0 -0.1757,0.1085202 0,0.041341 0.03101,0.124023 0.06201,0.1498612 0.06201,0.2583813 0,0.1963699 -0.129191,0.3358958 -0.129191,0.1343583 -0.356566,0.1343583 -0.248046,0 -0.397908,-0.1498612 -0.149861,-0.1550288 -0.149861,-0.4030749 0,-0.4082425 0.361734,-0.6614562 0.366902,-0.2583814 0.847491,-0.2583814 0.676959,0 1.049028,0.3669015 0.377237,0.3617339 0.377237,1.0283578 v 2.5734781 q 0,0.2118727 0.04134,0.3255605 0.04651,0.1085202 0.19637,0.1395259 0.124023,0.025838 0.124023,0.1343583 v 0.222208 q 0,0.2738842 -0.423746,0.2738842 -0.568439,0 -0.785479,-0.5477685 -0.496092,0.5736066 -0.956011,0.5736066 -0.439248,0 -0.723468,-0.3617339 -0.284219,-0.3669015 -0.284219,-0.9353404 0,-1.4572708 1.787999,-1.9171895 z m 0,0.5270979 q -0.728636,0.2687166 -0.728636,1.1833865 0,0.7183001 0.377237,0.7183001 0.165364,0 0.258381,-0.1601964 0.09302,-0.165364 0.09302,-0.3617339 z"
         style="fill:none;stroke:#000000;stroke-width:0.264583;stroke-opacity:1"
         id="path855" />
      <path
         d="m 41.146609,6.852501 q -0.09302,1.6278024 -1.276404,1.6278024 -0.697629,0 -1.147213,-0.6149476 -0.449583,-0.6149476 -0.449583,-1.8810161 0,-1.3280801 0.475421,-1.9585306 0.48059,-0.6356181 1.204057,-0.6356181 0.490925,0 0.821653,0.2945548 0.335896,0.2893871 0.335896,0.7234677 0,0.2738842 -0.155029,0.4392483 -0.155029,0.1601964 -0.387572,0.1601964 -0.206705,0 -0.341063,-0.1343583 -0.129191,-0.1343583 -0.129191,-0.3307281 0,-0.1756993 0.129191,-0.3669015 0.05684,-0.082682 0.05684,-0.124023 0,-0.1705317 -0.273884,-0.1705317 -0.594277,0 -0.594277,1.1937218 v 1.1937218 q 0,1.508947 0.625283,1.508947 0.475422,0 0.547768,-0.9818491 z"
         style="fill:none;stroke:#000000;stroke-width:0.264583;stroke-opacity:1"
         id="path857" />
      <path
         d="m 44.360869,7.1108823 q -0.118855,1.3694211 -1.235062,1.3694211 -0.738971,0 -1.173052,-0.6252828 -0.43408,-0.6252829 -0.43408,-1.8706809 0,-1.2092247 0.408242,-1.9016867 0.41341,-0.692462 1.105872,-0.692462 0.614948,0 0.992185,0.5374332 0.377236,0.5374332 0.377236,1.4210974 v 0.4340806 q 0,0.1240231 -0.12919,0.1240231 h -1.6123 v 0.4237454 q 0,0.6976296 0.134358,1.0696987 0.134359,0.3720692 0.470254,0.3720692 0.39274,0 0.542601,-0.7544736 z M 43.410026,5.3383863 V 4.6252538 q 0,-0.7441382 -0.382404,-0.7441382 -0.366902,0 -0.366902,0.9508433 v 0.5064274 z"
         style="fill:none;stroke:#000000;stroke-width:0.264583;stroke-opacity:1"
         id="path859" />
    </g>
  </g>
</svg>
