<?xml version="1.0" encoding="UTF-8" standalone="no"?>
<svg
   xmlns:dc="http://purl.org/dc/elements/1.1/"
   xmlns:cc="http://creativecommons.org/ns#"
   xmlns:rdf="http://www.w3.org/1999/02/22-rdf-syntax-ns#"
   xmlns:svg="http://www.w3.org/2000/svg"
   xmlns="http://www.w3.org/2000/svg"
   width="34.5mm"
   height="10.5mm"
   viewBox="0 0 34.5 10.5"
   version="1.1"
   id="svg8">
  <defs
     id="defs2" />
  <metadata
     id="metadata5">
    <rdf:RDF>
      <cc:Work
         rdf:about="">
        <dc:format>image/svg+xml</dc:format>
        <dc:type
           rdf:resource="http://purl.org/dc/dcmitype/StillImage" />
        <dc:title></dc:title>
      </cc:Work>
    </rdf:RDF>
  </metadata>
  <g
     id="layer1">
    <g
       aria-label="Prototype 1"
       id="text835"
       style="font-size:10.5833px;line-height:1.25;font-family:'Gloucester MT Extra Condensed';-inkscape-font-specification:'Gloucester MT Extra Condensed, ';stroke-width:0.264583"
       transform="translate(-17.907058,-8.9535292)">
      <path
         d="m 19.837838,13.692053 v 2.733674 q 0,0.268717 0.19637,0.403075 0.134358,0.08785 0.134358,0.206705 v 0.232543 q 0,0.118856 -0.134358,0.118856 h -1.6123 q -0.113687,0 -0.113687,-0.10852 v -0.242879 q 0,-0.113688 0.134358,-0.206705 0.19637,-0.139526 0.19637,-0.403075 v -6.11847 q 0,-0.263549 -0.19637,-0.3979073 -0.134358,-0.08785 -0.134358,-0.2118727 V 9.4701014 q 0,-0.1188554 0.134358,-0.1188554 h 1.395259 q 1.136878,0 1.756993,0.5942771 0.625283,0.5891099 0.625283,1.5709589 0,2.175571 -2.382276,2.175571 z m 0,-3.7258594 v 3.1160794 q 0.465087,0 0.676959,-0.103353 0.217041,-0.10852 0.346231,-0.423745 0.129191,-0.320393 0.129191,-0.987017 0,-0.661456 -0.118855,-0.987017 -0.118856,-0.330728 -0.356567,-0.465086 -0.237711,-0.1343585 -0.676959,-0.1498614 z"
         style="fill:none;stroke:#000000;stroke-width:0.264583;stroke-opacity:1"
         id="path837" />
      <path
         d="m 23.677385,13.557694 q 0.341063,-1.11104 0.956011,-1.11104 0.248046,0 0.387572,0.170532 0.144694,0.170532 0.144694,0.403075 0,0.232543 -0.134359,0.397907 -0.134358,0.160197 -0.351398,0.160197 -0.237711,0 -0.434081,-0.232543 -0.372069,0.594277 -0.372069,1.421097 v 1.756993 q 0,0.232543 0.19637,0.418578 0.08268,0.07235 0.08268,0.10852 v 0.258381 q 0,0.07751 -0.06718,0.07751 h -1.410763 q -0.06201,0 -0.06201,-0.05168 v -0.320392 q 0,-0.04651 0.07235,-0.07751 0.165364,-0.07751 0.165364,-0.294555 v -3.188425 q 0,-0.273885 -0.170532,-0.449584 -0.06718,-0.07235 -0.06718,-0.113688 v -0.253213 q 0,-0.103353 0.144693,-0.10852 l 0.919838,-0.0155 z"
         style="fill:none;stroke:#000000;stroke-width:0.264583;stroke-opacity:1"
         id="path839" />
      <path
         d="m 26.876146,12.405313 q 1.63297,0 1.63297,2.568311 0,1.209225 -0.403075,1.865513 -0.403075,0.656289 -1.162716,0.656289 -0.769976,0 -1.188554,-0.640786 -0.41341,-0.645953 -0.41341,-1.912022 0,-1.322912 0.43408,-1.927525 0.434081,-0.60978 1.100705,-0.60978 z m 0.50126,2.051548 q 0,-0.883664 -0.10852,-1.209224 -0.108521,-0.330728 -0.351399,-0.330728 -0.449584,0 -0.449584,1.250565 v 1.167884 q 0,0.930173 0.09819,1.291907 0.103353,0.356566 0.372069,0.356566 0.227376,0 0.330729,-0.273884 0.10852,-0.279052 0.10852,-1.023191 z"
         style="fill:none;stroke:#000000;stroke-width:0.264583;stroke-opacity:1"
         id="path841" />
      <path
         d="m 29.113728,13.071937 h -0.180867 q -0.118855,0 -0.118855,-0.103352 v -0.258382 q 0,-0.10852 0.113688,-0.196369 0.149861,-0.108521 0.191202,-0.242879 0.04134,-0.139526 0.04134,-0.449583 v -0.847491 q 0,-0.124023 0.165364,-0.144694 l 0.63045,-0.06718 q 0.08268,-0.01033 0.108521,-0.01033 0.07235,0 0.07235,0.124023 v 1.638138 h 0.527098 q 0.149862,0 0.149862,0.118855 v 0.315225 q 0,0.124023 -0.118856,0.124023 h -0.558104 v 3.141917 q 0,0.511595 0.315226,0.511595 0.07235,0 0.155028,-0.02067 0.05684,-0.0155 0.08785,-0.0155 0.09302,0 0.118856,0.07235 l 0.07751,0.248046 q 0.0155,0.03101 0.0155,0.04651 0,0.113687 -0.341064,0.279051 -0.341063,0.160197 -0.640785,0.160197 -0.811318,0 -0.811318,-1.007687 z"
         style="fill:none;stroke:#000000;stroke-width:0.264583;stroke-opacity:1"
         id="path843" />
      <path
         d="m 32.591541,12.405313 q 1.63297,0 1.63297,2.568311 0,1.209225 -0.403074,1.865513 -0.403075,0.656289 -1.162716,0.656289 -0.769977,0 -1.188555,-0.640786 -0.41341,-0.645953 -0.41341,-1.912022 0,-1.322912 0.434081,-1.927525 0.434081,-0.60978 1.100704,-0.60978 z m 0.50126,2.051548 q 0,-0.883664 -0.10852,-1.209224 -0.10852,-0.330728 -0.351399,-0.330728 -0.449583,0 -0.449583,1.250565 v 1.167884 q 0,0.930173 0.09819,1.291907 0.103352,0.356566 0.372069,0.356566 0.227375,0 0.330728,-0.273884 0.10852,-0.279052 0.10852,-1.023191 z"
         style="fill:none;stroke:#000000;stroke-width:0.264583;stroke-opacity:1"
         id="path845" />
      <path
         d="m 34.829123,13.071937 h -0.180867 q -0.118855,0 -0.118855,-0.103352 v -0.258382 q 0,-0.10852 0.113688,-0.196369 0.149861,-0.108521 0.191202,-0.242879 0.04134,-0.139526 0.04134,-0.449583 v -0.847491 q 0,-0.124023 0.165364,-0.144694 l 0.63045,-0.06718 q 0.08268,-0.01033 0.108521,-0.01033 0.07235,0 0.07235,0.124023 v 1.638138 h 0.527098 q 0.149861,0 0.149861,0.118855 v 0.315225 q 0,0.124023 -0.118855,0.124023 h -0.558104 v 3.141917 q 0,0.511595 0.315226,0.511595 0.07235,0 0.155028,-0.02067 0.05684,-0.0155 0.08785,-0.0155 0.09302,0 0.118855,0.07235 l 0.07751,0.248046 q 0.0155,0.03101 0.0155,0.04651 0,0.113687 -0.341064,0.279051 -0.341063,0.160197 -0.640785,0.160197 -0.811318,0 -0.811318,-1.007687 z"
         style="fill:none;stroke:#000000;stroke-width:0.264583;stroke-opacity:1"
         id="path847" />
      <path
         d="m 38.002046,17.3559 -0.950843,-3.948067 q -0.06718,-0.273884 -0.28422,-0.434081 -0.08268,-0.06718 -0.08268,-0.113687 v -0.253214 q 0,-0.09302 0.10852,-0.09302 h 1.359086 q 0.09302,0 0.09302,0.08268 v 0.263549 q 0,0.06718 -0.09302,0.103352 -0.186034,0.06718 -0.186034,0.273884 0,0.113688 0.03617,0.268717 l 0.465086,1.968866 0.465087,-1.912022 q 0.03101,-0.124023 0.03101,-0.19637 0,-0.186035 -0.227376,-0.361734 -0.124023,-0.09819 -0.124023,-0.144693 v -0.258382 q 0,-0.08785 0.08268,-0.08785 h 1.11104 q 0.09302,0 0.09302,0.08785 v 0.258382 q 0,0.06201 -0.09819,0.118855 -0.253214,0.149861 -0.341063,0.527098 l -0.847491,3.524321 q -0.222208,0.925006 -0.366902,1.235063 -0.144693,0.315225 -0.408242,0.506428 -0.258381,0.191202 -0.578774,0.191202 -0.28422,0 -0.454751,-0.139526 -0.165364,-0.139526 -0.165364,-0.372069 0,-0.227376 0.149861,-0.341064 0.149861,-0.113687 0.341063,-0.113687 0.201538,0 0.563271,0.248046 0.206705,-0.346231 0.310058,-0.888832 z"
         style="fill:none;stroke:#000000;stroke-width:0.264583;stroke-opacity:1"
         id="path849" />
      <path
         d="m 40.363652,18.203391 v -4.847234 q 0,-0.28422 -0.222208,-0.39274 -0.09302,-0.04651 -0.09302,-0.134358 v -0.191202 q 0,-0.09302 0.113687,-0.09302 l 1.193722,-0.04134 v 0.490925 q 0.41341,-0.527098 0.873329,-0.527098 0.558104,0 0.852659,0.651121 0.299722,0.645953 0.299722,1.705317 0,0.764809 -0.139526,1.421097 -0.134358,0.651121 -0.366901,0.950843 -0.227376,0.299723 -0.60978,0.299723 -0.490925,0 -0.878497,-0.408243 v 1.173052 q 0,0.23771 0.144694,0.351398 0.07751,0.05684 0.07751,0.118856 v 0.279051 q 0,0.07235 -0.05684,0.07235 H 40.17245 q -0.08268,0 -0.08268,-0.07235 v -0.279051 q 0,-0.05684 0.07751,-0.108521 0.19637,-0.118855 0.19637,-0.418577 z m 1.02319,-4.867905 v 3.240102 q 0.232543,0.253214 0.418578,0.253214 0.258381,0 0.366901,-0.39274 0.10852,-0.397907 0.10852,-1.581293 0,-1.064532 -0.124023,-1.39526 -0.118855,-0.335895 -0.361733,-0.335895 -0.191203,0 -0.408243,0.211872 z"
         style="fill:none;stroke:#000000;stroke-width:0.264583;stroke-opacity:1"
         id="path851" />
      <path
         d="m 46.688828,16.126005 q -0.118856,1.369421 -1.235063,1.369421 -0.738971,0 -1.173051,-0.625283 -0.434081,-0.625283 -0.434081,-1.870681 0,-1.209225 0.408243,-1.901687 0.41341,-0.692462 1.105872,-0.692462 0.614947,0 0.992184,0.537434 0.377237,0.537433 0.377237,1.421097 v 0.434081 q 0,0.124023 -0.129191,0.124023 h -1.612299 v 0.423745 q 0,0.69763 0.134358,1.069699 0.134358,0.372069 0.470254,0.372069 0.39274,0 0.542601,-0.754474 z m -0.950843,-1.772496 v -0.713133 q 0,-0.744138 -0.382405,-0.744138 -0.366901,0 -0.366901,0.950843 v 0.506428 z"
         style="fill:none;stroke:#000000;stroke-width:0.264583;stroke-opacity:1"
         id="path853" />
      <path
         d="m 50.38368,10.679326 h -0.69763 q -0.09302,0 -0.09302,-0.08785 v -0.284219 q 0,-0.09302 0.08268,-0.134358 l 1.04386,-0.4650867 q 0.155029,-0.072347 0.258382,-0.072347 h 0.377237 q 0.10852,0 0.10852,0.1085202 V 16.24486 q 0,0.320393 0.09302,0.454751 0.09302,0.134359 0.351399,0.155029 0.139526,0.0155 0.139526,0.134358 v 0.294555 q 0,0.103353 -0.103353,0.103353 H 49.87725 q -0.124023,0 -0.124023,-0.10852 v -0.263549 q 0,-0.139526 0.186035,-0.1757 0.232543,-0.04134 0.335896,-0.165364 0.10852,-0.124023 0.10852,-0.43408 z"
         style="fill:none;stroke:#000000;stroke-width:0.264583;stroke-opacity:1"
         id="path855" />
    </g>
  </g>
</svg>
