<?xml version="1.0" encoding="UTF-8" standalone="no"?>
<svg
   xmlns:dc="http://purl.org/dc/elements/1.1/"
   xmlns:cc="http://creativecommons.org/ns#"
   xmlns:rdf="http://www.w3.org/1999/02/22-rdf-syntax-ns#"
   xmlns:svg="http://www.w3.org/2000/svg"
   xmlns="http://www.w3.org/2000/svg"
   xmlns:sodipodi="http://sodipodi.sourceforge.net/DTD/sodipodi-0.dtd"
   xmlns:inkscape="http://www.inkscape.org/namespaces/inkscape"
   width="51mm"
   height="10.5mm"
   viewBox="0 0 51 10.5"
   version="1.1"
   id="svg8"
   sodipodi:docname="thana.svg"
   inkscape:version="1.0.2 (e86c870879, 2021-01-15)">
  <sodipodi:namedview
     pagecolor="#ffffff"
     bordercolor="#666666"
     borderopacity="1"
     objecttolerance="10"
     gridtolerance="10"
     guidetolerance="10"
     inkscape:pageopacity="0"
     inkscape:pageshadow="2"
     inkscape:window-width="3840"
     inkscape:window-height="2080"
     id="namedview8"
     showgrid="false"
     inkscape:zoom="8.7416258"
     inkscape:cx="96.377953"
     inkscape:cy="19.84252"
     inkscape:window-x="-11"
     inkscape:window-y="-11"
     inkscape:window-maximized="1"
     inkscape:current-layer="svg8" />
  <defs
     id="defs2" />
  <metadata
     id="metadata5">
    <rdf:RDF>
      <cc:Work
         rdf:about="">
        <dc:format>image/svg+xml</dc:format>
        <dc:type
           rdf:resource="http://purl.org/dc/dcmitype/StillImage" />
        <dc:title />
      </cc:Work>
    </rdf:RDF>
  </metadata>
  <g
     id="layer1"
     transform="translate(-0.53453907)">
    <g
       aria-label="Thanatopsis v1.0"
       id="text12"
       style="font-size:10.5833px;line-height:1.25;font-family:'Gloucester MT Extra Condensed';-inkscape-font-specification:'Gloucester MT Extra Condensed, ';stroke-width:0.264583">
      <path
         d="m 3.6550494,1.1331878 v 6.4750363 q 0,0.2687166 0.1963698,0.4030749 0.1343583,0.08785 0.1343583,0.2067051 v 0.2325432 q 0,0.1188554 -0.1343583,0.1188554 H 2.2391196 q -0.1136878,0 -0.1136878,-0.1085202 V 8.2180041 q 0,-0.1136878 0.1343583,-0.2067051 Q 2.45616,7.8717731 2.45616,7.6082241 V 1.1331878 H 2.2287844 q -0.2532137,0 -0.3772368,0.1912022 -0.1188554,0.1912021 -0.2170403,0.8423231 -0.010335,0.08785 -0.1085202,0.08785 H 1.3244497 q -0.1756993,0 -0.1756993,-0.1498612 V 0.60092221 q 0,-0.17569931 0.165364,-0.17569931 0.1033526,0 0.3669015,0.041341 0.4237454,0.0671792 0.6407858,0.0671792 h 1.8293398 q 0.139526,-0.0206705 0.3410634,-0.0568439 0.3100576,-0.0465086 0.3410634,-0.0465086 0.1395259,0 0.1395259,0.12919067 V 2.1047016 q 0,0.1498612 -0.1343583,0.1498612 H 4.6420661 q -0.1188554,0 -0.1446936,-0.067179 Q 4.476702,2.1202045 4.4250258,1.8514879 4.3320085,1.407072 4.2338236,1.2727137 4.1356387,1.1331878 3.8875926,1.1331878 Z"
         style="fill:none;stroke:#000000;stroke-width:0.264583;stroke-opacity:1"
         id="path833" />
      <path
         d="m 6.5437525,4.6006653 v 3.2245991 q 0,0.1756993 0.1188554,0.30489 0.056844,0.062011 0.056844,0.08785 v 0.2842194 q 0,0.067179 -0.072347,0.067179 H 5.3655336 q -0.082682,0 -0.082682,-0.077514 V 8.2180041 q 0,-0.036173 0.067179,-0.08785 Q 5.5205624,7.9957961 5.5205624,7.7632529 V 1.448413 q 0,-0.2842195 -0.2222079,-0.3927396 -0.093017,-0.046509 -0.093017,-0.13435833 V 0.66810135 q 0,-0.0930173 0.1136878,-0.0930173 l 1.2247275,-0.041341 V 4.0580645 q 0.4909246,-0.428913 0.9508433,-0.428913 0.8474908,0 0.8474908,1.0128548 v 3.1832581 q 0,0.1601965 0.1343583,0.3307282 0.067179,0.082682 0.067179,0.1136877 v 0.2170404 q 0,0.082682 -0.077514,0.082682 h -1.260901 q -0.082682,0 -0.082682,-0.082682 V 8.2180041 q 0,-0.041341 0.056844,-0.082682 Q 7.3188965,8.0268019 7.3188965,7.8769407 V 4.688515 q 0,-0.3720691 -0.3048899,-0.3720691 -0.2480461,0 -0.4702541,0.2842194 z"
         style="fill:none;stroke:#000000;stroke-width:0.264583;stroke-opacity:1"
         id="path835" />
      <path
         d="M 10.652016,5.463659 V 4.7401913 q 0,-0.6407858 -0.496092,-0.6407858 -0.1756996,0 -0.1756996,0.1085202 0,0.041341 0.031006,0.124023 0.06201,0.1498612 0.06201,0.2583814 0,0.1963698 -0.129191,0.3358957 -0.1291907,0.1343583 -0.3565663,0.1343583 -0.248046,0 -0.3979072,-0.1498612 Q 9.0397163,4.7556941 9.0397163,4.507648 q 0,-0.4082425 0.3617339,-0.6614562 0.3669015,-0.2583813 0.8474908,-0.2583813 0.676959,0 1.049028,0.3669015 0.377237,0.3617339 0.377237,1.0283577 v 2.5734781 q 0,0.2118727 0.04134,0.3255605 0.04651,0.1085202 0.19637,0.139526 0.124023,0.025838 0.124023,0.1343583 v 0.2222079 q 0,0.2738842 -0.423746,0.2738842 -0.568439,0 -0.785479,-0.5477684 -0.496092,0.5736066 -0.9560108,0.5736066 -0.4392483,0 -0.7234677,-0.3617339 Q 8.864017,7.9492875 8.864017,7.3808485 q 0,-1.4572707 1.787999,-1.9171895 z m 0,0.5270979 q -0.7286355,0.2687166 -0.7286355,1.1833866 0,0.7183001 0.3772365,0.7183001 0.165364,0 0.258382,-0.1601964 0.09302,-0.1653641 0.09302,-0.3617339 z"
         style="fill:none;stroke:#000000;stroke-width:0.264583;stroke-opacity:1"
         id="path837" />
      <path
         d="M 12.481355,7.7632529 V 4.5489891 q 0,-0.2842195 -0.222208,-0.3927397 -0.09302,-0.046509 -0.09302,-0.1343583 V 3.8306889 q 0,-0.093017 0.113688,-0.098185 l 1.224728,-0.036173 V 4.120076 q 0.439248,-0.470254 0.961178,-0.470254 0.387572,0 0.604612,0.2997224 0.222208,0.2997223 0.222208,0.7803116 v 3.0954084 q 0,0.1601965 0.139526,0.3307282 0.06718,0.082682 0.06718,0.1136877 v 0.2170404 q 0,0.082682 -0.07751,0.082682 h -1.260901 q -0.08785,0 -0.08785,-0.082682 V 8.2180041 q 0,-0.041341 0.05684,-0.082682 0.139526,-0.1085201 0.139526,-0.2583813 V 4.729856 q 0,-0.3772368 -0.268716,-0.3772368 -0.258382,0 -0.496092,0.3100577 v 3.1625875 q 0,0.1756993 0.118855,0.30489 0.05684,0.062011 0.05684,0.08785 v 0.2842194 q 0,0.067179 -0.07235,0.067179 h -1.281571 q -0.08268,0 -0.08268,-0.077514 V 8.2180041 q 0,-0.036173 0.06718,-0.08785 0.170531,-0.1343583 0.170531,-0.3669015 z"
         style="fill:none;stroke:#000000;stroke-width:0.264583;stroke-opacity:1"
         id="path839" />
      <path
         d="M 17.612809,5.463659 V 4.7401913 q 0,-0.6407858 -0.496092,-0.6407858 -0.1757,0 -0.1757,0.1085202 0,0.041341 0.03101,0.124023 0.06201,0.1498612 0.06201,0.2583814 0,0.1963698 -0.129191,0.3358957 -0.129191,0.1343583 -0.356566,0.1343583 -0.248046,0 -0.397908,-0.1498612 -0.149861,-0.1550288 -0.149861,-0.4030749 0,-0.4082425 0.361734,-0.6614562 0.366902,-0.2583813 0.847491,-0.2583813 0.676959,0 1.049028,0.3669015 0.377237,0.3617339 0.377237,1.0283577 v 2.5734781 q 0,0.2118727 0.04134,0.3255605 0.04651,0.1085202 0.19637,0.139526 0.124023,0.025838 0.124023,0.1343583 v 0.2222079 q 0,0.2738842 -0.423746,0.2738842 -0.568438,0 -0.785479,-0.5477684 -0.496092,0.5736066 -0.956011,0.5736066 -0.439248,0 -0.723468,-0.3617339 -0.284219,-0.3669015 -0.284219,-0.9353405 0,-1.4572707 1.787999,-1.9171895 z m 0,0.5270979 q -0.728635,0.2687166 -0.728635,1.1833866 0,0.7183001 0.377236,0.7183001 0.165364,0 0.258382,-0.1601964 0.09302,-0.1653641 0.09302,-0.3617339 z"
         style="fill:none;stroke:#000000;stroke-width:0.264583;stroke-opacity:1"
         id="path841" />
      <path
         d="m 19.390472,4.2544343 h -0.180867 q -0.118856,0 -0.118856,-0.1033525 V 3.8927005 q 0,-0.1085202 0.113688,-0.1963699 0.149861,-0.1085201 0.191202,-0.2428784 0.04134,-0.1395259 0.04134,-0.4495835 V 2.1563779 q 0,-0.1240231 0.165364,-0.1446936 l 0.630451,-0.067179 q 0.08268,-0.010335 0.10852,-0.010335 0.07235,0 0.07235,0.1240231 v 1.6381376 h 0.527098 q 0.149861,0 0.149861,0.1188555 v 0.3152252 q 0,0.124023 -0.118856,0.124023 h -0.558103 v 3.1419171 q 0,0.5115951 0.315225,0.5115951 0.07235,0 0.155029,-0.020671 0.05684,-0.015503 0.08785,-0.015503 0.09302,0 0.118856,0.072347 l 0.07751,0.248046 q 0.0155,0.031006 0.0155,0.046509 0,0.1136878 -0.341063,0.2790518 -0.341064,0.1601965 -0.640786,0.1601965 -0.811317,0 -0.811317,-1.0076873 z"
         style="fill:none;stroke:#000000;stroke-width:0.264583;stroke-opacity:1"
         id="path843" />
      <path
         d="m 22.868285,3.5878105 q 1.63297,0 1.63297,2.5683105 0,1.2092247 -0.403075,1.8655133 -0.403075,0.6562886 -1.162716,0.6562886 -0.769976,0 -1.188554,-0.6407858 -0.41341,-0.6459533 -0.41341,-1.9120219 0,-1.3229124 0.43408,-1.9275248 0.434081,-0.6097799 1.100705,-0.6097799 z m 0.50126,2.0515478 q 0,-0.8836642 -0.108521,-1.2092247 -0.10852,-0.3307281 -0.351398,-0.3307281 -0.449584,0 -0.449584,1.2505657 v 1.1678837 q 0,0.9301728 0.09818,1.2919067 0.103353,0.3565662 0.372069,0.3565662 0.227376,0 0.330728,-0.2738842 0.108521,-0.2790519 0.108521,-1.0231901 z"
         style="fill:none;stroke:#000000;stroke-width:0.264583;stroke-opacity:1"
         id="path845" />
      <path
         d="M 25.136874,9.3858877 V 4.5386538 q 0,-0.2842195 -0.222208,-0.3927396 -0.09302,-0.046509 -0.09302,-0.1343583 V 3.8203537 q 0,-0.093017 0.113688,-0.093017 l 1.193722,-0.041341 v 0.4909245 q 0.41341,-0.5270979 0.873329,-0.5270979 0.558103,0 0.852658,0.651121 0.299722,0.6459533 0.299722,1.7053168 0,0.7648088 -0.139526,1.4210974 -0.134358,0.651121 -0.366901,0.9508433 -0.227376,0.2997224 -0.60978,0.2997224 -0.490925,0 -0.878497,-0.4082426 v 1.1730513 q 0,0.2377109 0.144694,0.3513986 0.07751,0.056844 0.07751,0.1188555 v 0.2790523 q 0,0.07235 -0.05684,0.07235 h -1.379757 q -0.08268,0 -0.08268,-0.07235 V 9.9129857 q 0,-0.056844 0.07752,-0.1085202 0.196369,-0.1188554 0.196369,-0.4185778 z m 1.02319,-4.8679044 v 3.240102 q 0.232544,0.2532137 0.418578,0.2532137 0.258382,0 0.366902,-0.3927396 0.10852,-0.3979073 0.10852,-1.5812938 0,-1.0645311 -0.124023,-1.3952593 -0.118856,-0.3358957 -0.361734,-0.3358957 -0.191202,0 -0.408243,0.2118727 z"
         style="fill:none;stroke:#000000;stroke-width:0.264583;stroke-opacity:1"
         id="path847" />
      <path
         d="m 30.025448,3.5878105 q 0.506428,0 0.831988,0.2532137 0.330728,0.2532137 0.330728,0.6407857 0,0.222208 -0.155029,0.3824044 -0.149861,0.1601964 -0.392739,0.1601964 -0.19637,0 -0.351399,-0.1136878 -0.149861,-0.1188554 -0.149861,-0.3358957 0,-0.08785 0.04651,-0.1963698 0.03101,-0.072347 0.03101,-0.1085202 0,-0.1808669 -0.273884,-0.1808669 -0.19637,0 -0.351398,0.1446935 -0.149862,0.139526 -0.149862,0.3927397 0,0.2170403 0.139526,0.4134101 0.139526,0.1912022 0.733803,0.6201152 0.573607,0.4134102 0.800982,0.7648088 0.227376,0.346231 0.227376,0.7854793 0,0.6976296 -0.449584,1.0852016 -0.449583,0.3824044 -1.069698,0.3824044 -0.58911,0 -0.956011,-0.2790519 -0.361734,-0.2842195 -0.361734,-0.7183001 0,-0.2377108 0.144693,-0.4082425 0.144694,-0.1756993 0.418578,-0.1756993 0.496092,0 0.496092,0.470254 0,0.077514 -0.03101,0.2015374 -0.03101,0.1136878 -0.03101,0.1601965 0,0.2532137 0.361734,0.2532137 0.273884,0 0.454751,-0.1705317 0.180867,-0.1756993 0.180867,-0.3979073 0,-0.2428784 -0.160197,-0.4444159 -0.155028,-0.206705 -0.614947,-0.5581037 -0.620115,-0.4754216 -0.873329,-0.816485 -0.253214,-0.346231 -0.253214,-0.8268203 0,-0.6149476 0.434081,-0.9973519 0.434081,-0.3824044 0.992184,-0.3824044 z"
         style="fill:none;stroke:#000000;stroke-width:0.264583;stroke-opacity:1"
         id="path849" />
      <path
         d="m 32.37155,0.96265608 q 0.268717,0 0.449584,0.18086692 0.180867,0.180867 0.180867,0.4392483 0,0.2532137 -0.180867,0.4340806 -0.180867,0.180867 -0.434081,0.180867 -0.258381,0 -0.439248,-0.180867 -0.180867,-0.1808669 -0.180867,-0.4340806 0,-0.2687166 0.186035,-0.4444159 0.191202,-0.17569932 0.418577,-0.17569932 z M 32.908984,3.6963306 V 7.74775 q 0,0.2687166 0.222208,0.3824044 0.09302,0.051676 0.09302,0.1498612 v 0.1912022 q 0,0.098185 -0.113688,0.098185 h -1.426265 q -0.113688,0 -0.113688,-0.098185 V 8.2800156 q 0,-0.1033525 0.09818,-0.1498612 0.21704,-0.1085201 0.21704,-0.3824044 V 4.5489891 q 0,-0.2790519 -0.222208,-0.3927397 -0.09302,-0.051676 -0.09302,-0.1343583 V 3.8306889 q 0,-0.093017 0.113688,-0.098185 z"
         style="fill:none;stroke:#000000;stroke-width:0.264583;stroke-opacity:1"
         id="path851" />
      <path
         d="m 34.939862,3.5878105 q 0.506427,0 0.831988,0.2532137 0.330728,0.2532137 0.330728,0.6407857 0,0.222208 -0.155029,0.3824044 -0.149861,0.1601964 -0.39274,0.1601964 -0.19637,0 -0.351398,-0.1136878 -0.149862,-0.1188554 -0.149862,-0.3358957 0,-0.08785 0.04651,-0.1963698 0.03101,-0.072347 0.03101,-0.1085202 0,-0.1808669 -0.273884,-0.1808669 -0.19637,0 -0.351399,0.1446935 -0.149861,0.139526 -0.149861,0.3927397 0,0.2170403 0.139526,0.4134101 0.139526,0.1912022 0.733803,0.6201152 0.573606,0.4134102 0.800982,0.7648088 0.227375,0.346231 0.227375,0.7854793 0,0.6976296 -0.449583,1.0852016 -0.449584,0.3824044 -1.069699,0.3824044 -0.589109,0 -0.956011,-0.2790519 -0.361734,-0.2842195 -0.361734,-0.7183001 0,-0.2377108 0.144694,-0.4082425 0.144693,-0.1756993 0.418578,-0.1756993 0.496092,0 0.496092,0.470254 0,0.077514 -0.03101,0.2015374 -0.03101,0.1136878 -0.03101,0.1601965 0,0.2532137 0.361734,0.2532137 0.273884,0 0.454751,-0.1705317 0.180867,-0.1756993 0.180867,-0.3979073 0,-0.2428784 -0.160196,-0.4444159 -0.155029,-0.206705 -0.614948,-0.5581037 -0.620115,-0.4754216 -0.873329,-0.816485 -0.253213,-0.346231 -0.253213,-0.8268203 0,-0.6149476 0.43408,-0.9973519 0.434081,-0.3824044 0.992185,-0.3824044 z"
         style="fill:none;stroke:#000000;stroke-width:0.264583;stroke-opacity:1"
         id="path853" />
      <path
         d="m 41.073835,4.5179833 -1.02319,3.9842402 q -0.02584,0.1033526 -0.113688,0.1033526 h -0.242878 q -0.09302,0 -0.118856,-0.1033526 L 38.608877,4.5179833 Q 38.53653,4.2079257 38.365999,4.120076 38.278149,4.0735674 38.278149,3.9702149 V 3.8048508 q 0,-0.1085202 0.10852,-0.1085202 h 1.286739 q 0.118856,0 0.118856,0.1033526 V 3.996053 q 0,0.098185 -0.113688,0.1601964 -0.165364,0.098185 -0.165364,0.2273756 0,0.067179 0.0155,0.1343583 l 0.52193,2.1445651 0.50126,-2.0567154 q 0.0155,-0.067179 0.0155,-0.1343583 0,-0.2273756 -0.253214,-0.3565663 -0.103353,-0.051676 -0.103353,-0.08785 V 3.7945156 q 0,-0.098185 0.108521,-0.098185 h 1.04386 q 0.09819,0 0.09819,0.098185 v 0.2325432 q 0,0.077514 -0.103353,0.1188554 -0.211872,0.082682 -0.284219,0.3720691 z"
         style="fill:none;stroke:#000000;stroke-width:0.264583;stroke-opacity:1"
         id="path855" />
      <path
         d="m 43.125383,1.8618231 h -0.697629 q -0.09302,0 -0.09302,-0.08785 V 1.489754 q 0,-0.093017 0.08268,-0.1343583 l 1.043861,-0.46508639 q 0.155029,-0.0723468 0.258381,-0.0723468 h 0.377237 q 0.10852,0 0.10852,0.10852016 V 7.4273572 q 0,0.3203928 0.09302,0.4547511 0.09302,0.1343583 0.351399,0.1550288 0.139526,0.015503 0.139526,0.1343583 v 0.2945548 q 0,0.1033525 -0.103353,0.1033525 h -2.06705 q -0.124023,0 -0.124023,-0.1085202 V 8.1973336 q 0,-0.139526 0.186034,-0.1756993 0.232544,-0.041341 0.335896,-0.1653641 0.10852,-0.124023 0.10852,-0.4340806 z"
         style="fill:none;stroke:#000000;stroke-width:0.264583;stroke-opacity:1"
         id="path857" />
      <path
         d="m 47.161301,8.011299 q 0,0.2738842 -0.19637,0.470254 -0.196369,0.1963699 -0.470254,0.1963699 -0.273884,0 -0.470254,-0.1963699 -0.191202,-0.1963698 -0.191202,-0.470254 0,-0.2738842 0.191202,-0.4650864 0.19637,-0.1963698 0.470254,-0.1963698 0.279052,0 0.470254,0.1963698 0.19637,0.1912022 0.19637,0.4650864 z"
         style="fill:none;stroke:#000000;stroke-width:0.264583;stroke-opacity:1"
         id="path859" />
      <path
         d="m 49.404048,0.81796253 q 0.868161,0 1.322913,1.00251957 0.454751,1.0025196 0.454751,2.935212 0,1.9636982 -0.465087,2.9455473 -0.459918,0.9766815 -1.260901,0.9766815 -0.775144,0 -1.271236,-0.9663463 -0.496092,-0.9663462 -0.496092,-2.8318594 0,-2.0722184 0.480589,-3.0644027 0.485757,-0.99735197 1.235063,-0.99735197 z m 0.635618,2.41844937 q 0,-1.8861838 -0.599445,-1.8861838 -0.356566,0 -0.475421,0.5839418 -0.118856,0.5787742 -0.118856,1.4521031 v 3.0385646 q 0,1.7414902 0.594277,1.7414902 0.315226,0 0.454752,-0.4547512 0.144693,-0.4599187 0.144693,-1.8086693 z"
         style="fill:none;stroke:#000000;stroke-width:0.264583;stroke-opacity:1"
         id="path861" />
    </g>
  </g>
</svg>
